<svg xmlns="http://www.w3.org/2000/svg">
    <!-- danopz icons -->
    <symbol id="i-fork" viewBox="0 0 32 32">
        <circle cx="10" cy="6" r="3" />
        <circle cx="22" cy="6" r="3" />
        <circle cx="16" cy="26" r="3" />
        <path d="M10 9V13L16 17V23V17L22 13V9" />
    </symbol>

    <symbol id="i-stackoverflow" viewBox="0 0 64 64">
        <path stroke="none" fill="currentColor" d="M7.1,39.2V59.5H53.2V39.2H48.3V54.5H12.2V39.2ZM43,49.2V44.2H17.5V49.2ZM43,42.7L43.9,37.8L19,32.7L18,37.5ZM44.4,36.3L46.5,31.8L23.5,21L21.4,25.5ZM47.5,30.4L50.5,26.7L30.9,10.4L27.9,14.1ZM51.7,25.4L55.6,22.6L40.4,2.1L36.6,5Z"/>
    </symbol>

    <symbol id="i-merge" viewBox="0 0 32 32">
        <circle cx="9" cy="6" r="3" />
        <circle cx="9" cy="26" r="3" />
        <circle cx="23" cy="26" r="3" />
        <path d="M9 9V23M23 23V6H14M14 6L17 7V5Z" />
    </symbol>

    <symbol id="i-xing" viewBox="0 0 32 32">
        <path d="M5 8H10L13 13 9 20H4L8 13ZM22 3H27L18 18 24 28H19L13 18Z" />
    </symbol>

    <symbol id="i-commit" viewBox="0 0 32 32">
        <circle cx="16" cy="16" r="4" />
        <path d="M3,16H12M20,16H29" />
    </symbol>

    <symbol id="i-badge" viewBox="0 0 32 32">
        <path d="M15.1,3.05Q16,2 16.9,3.05 17.56,4.18 18.64,3.45 19.9,2.89 20.26,4.23 20.36,5.53 21.66,5.34 23.04,5.39 22.77,6.74 22.31,7.96 23.55,8.36 24.77,9 23.95,10.1 23,11 23.95,11.9 24.77,13 23.55,13.64 22.31,14.04 22.77,15.26 23.04,16.61 21.66,16.66 20.36,16.47 20.26,17.77 19.9,19.11 18.64,18.55 17.56,17.82 16.9,18.95 16,20 15.1,18.95 14.44,17.82 13.36,18.55 12.1,19.11 11.74,17.77V29L16,24 20.26,29V17.77Q19.9,19.11 18.64,18.55 17.56,17.82 16.9,18.95 16,20 15.1,18.95 14.44,17.82 13.36,18.55 12.1,19.11 11.74,17.77 11.64,16.47 10.34,16.66 8.96,16.61 9.23,15.26 9.69,14.04 8.45,13.64 7.23,13 8.05,11.9 9,11 8.05,10.1 7.23,9 8.45,8.36 9.69,7.96 9.23,6.74 8.96,5.39 10.34,5.34 11.64,5.53 11.74,4.23 12.1,2.89 13.36,3.45 14.44,4.18 15.1,3.05Z" />
    </symbol>

    <symbol id="i-thumbs-down" viewBox="0 0 32 32">
        <path d="M3,4H9V18H3ZM3,4H9V6Q11,3 20,3H23Q27,5 24,7 28,9 25,11 29,13 26,15 30,17 27,19H18C23,29 16,32 15,29 15,26 16,18 9,17V18H3Z" />
    </symbol>

    <symbol id="i-thumbs-up" viewBox="0 0 32 32">
        <path d="M3,28H9V14H3ZM3,28H9V26Q11,29 20,29H23Q27,27 24,25 28,23 25,21 29,19 26,17 30,15 27,13H18C23,3 16,0 15,3 15,6 16,14 9,15V14H3Z" />
    </symbol>

    <symbol id="i-mastodon" viewBox="0 0 64 64">
        <path stroke="none" fill="currentColor" d="M32,6c21,0 25,4 25,18c0,19 -3,22 -25,22c0,0 -9,0 -10,-1c1,8 8,8 19,6v5c-2,1 -6,2 -9,2c-20,0 -25,-6 -25,-34c0,-14 4,-18 25,-18ZM22,24c0,-5 7,-6 7,0v8h6v-8c0,-5 7,-6 7,0v14h6v-14c0,-12 -14,-12 -16,-4c-2,-8 -16,-8 -16,4v14h6Z" />
    </symbol>

    <!-- bytesize icons -->
    <symbol id="i-location" viewBox="0 0 32 32">
        <circle cx="16" cy="11" r="4" />
        <path d="M24 15 C21 22 16 30 16 30 16 30 11 22 8 15 5 8 10 2 16 2 22 2 27 8 24 15 Z" />
    </symbol>

    <symbol id="i-github" viewBox="0 0 64 64">
        <path stroke-width="0" fill="currentColor" d="M32 0 C14 0 0 14 0 32 0 53 19 62 22 62 24 62 24 61 24 60 L24 55 C17 57 14 53 13 50 13 50 13 49 11 47 10 46 6 44 10 44 13 44 15 48 15 48 18 52 22 51 24 50 24 48 26 46 26 46 18 45 12 42 12 31 12 27 13 24 15 22 15 22 13 18 15 13 15 13 20 13 24 17 27 15 37 15 40 17 44 13 49 13 49 13 51 20 49 22 49 22 51 24 52 27 52 31 52 42 45 45 38 46 39 47 40 49 40 52 L40 60 C40 61 40 62 42 62 45 62 64 53 64 32 64 14 50 0 32 0 Z" />
    </symbol>

    <symbol id="i-msg" viewBox="0 0 32 32">
        <path d="M2 4 L30 4 30 22 16 22 8 29 8 22 2 22 Z" />
    </symbol>

    <symbol id="i-clipboard" viewBox="0 0 32 32">
        <path d="M12 2 L12 6 20 6 20 2 12 2 Z M11 4 L6 4 6 30 26 30 26 4 21 4" />
    </symbol>

    <symbol id="i-code" viewBox="0 0 32 32">
        <path d="M10 9 L3 17 10 25 M22 9 L29 17 22 25 M18 7 L14 27" />
    </symbol>

    <symbol id="i-reply" viewBox="0 0 32 32">
        <path d="M10 6 L3 14 10 22 M3 14 L18 14 C26 14 30 18 30 26" />
    </symbol>

    <symbol id="i-compose" viewBox="0 0 32 32">
        <path d="M27 15 L27 30 2 30 2 5 17 5 M30 6 L26 2 9 19 7 25 13 23 Z M22 6 L26 10 Z M9 19 L13 23 Z" />
    </symbol>

    <symbol id="i-star" viewBox="0 0 32 32">
        <path d="M16 2 L20 12 30 12 22 19 25 30 16 23 7 30 10 19 2 12 12 12 Z" />
    </symbol>
</svg>
