<svg xmlns="http://www.w3.org/2000/svg">
    <!-- danopz icons -->
    <symbol id="i-fork" viewBox="0 0 32 32">
        <circle cx="10" cy="6" r="3" />
        <circle cx="22" cy="6" r="3" />
        <circle cx="16" cy="26" r="3" />
        <path d="M10 9V13L16 17V23V17L22 13V9" />
    </symbol>

    <symbol id="i-stackoverflow" viewBox="0 0 64 64">
        <path stroke="none" fill="currentColor" d="M7.1,39.2V59.5H53.2V39.2H48.3V54.5H12.2V39.2ZM43,49.2V44.2H17.5V49.2ZM43,42.7L43.9,37.8L19,32.7L18,37.5ZM44.4,36.3L46.5,31.8L23.5,21L21.4,25.5ZM47.5,30.4L50.5,26.7L30.9,10.4L27.9,14.1ZM51.7,25.4L55.6,22.6L40.4,2.1L36.6,5Z"/>
    </symbol>

    <symbol id="i-merge" viewBox="0 0 32 32">
        <circle cx="9" cy="6" r="3" />
        <circle cx="9" cy="26" r="3" />
        <circle cx="23" cy="26" r="3" />
        <path d="M9 9V23M23 23V6H14M14 6L17 7V5Z" />
    </symbol>

    <symbol id="i-xing" viewBox="0 0 32 32">
        <path d="M5 8H10L13 13 9 20H4L8 13ZM22 3H27L18 18 24 28H19L13 18Z" />
    </symbol>

    <!-- bytesize icons -->
    <symbol id="i-location" viewBox="0 0 32 32">
        <circle cx="16" cy="11" r="4" />
        <path d="M24 15 C21 22 16 30 16 30 16 30 11 22 8 15 5 8 10 2 16 2 22 2 27 8 24 15 Z" />
    </symbol>

    <symbol id="i-github" viewBox="0 0 64 64">
        <path stroke-width="0" fill="currentColor" d="M32 0 C14 0 0 14 0 32 0 53 19 62 22 62 24 62 24 61 24 60 L24 55 C17 57 14 53 13 50 13 50 13 49 11 47 10 46 6 44 10 44 13 44 15 48 15 48 18 52 22 51 24 50 24 48 26 46 26 46 18 45 12 42 12 31 12 27 13 24 15 22 15 22 13 18 15 13 15 13 20 13 24 17 27 15 37 15 40 17 44 13 49 13 49 13 51 20 49 22 49 22 51 24 52 27 52 31 52 42 45 45 38 46 39 47 40 49 40 52 L40 60 C40 61 40 62 42 62 45 62 64 53 64 32 64 14 50 0 32 0 Z" />
    </symbol>

    <symbol id="i-twitter" viewBox="0 0 64 64">
        <path stroke-width="0" fill="currentColor" d="M60 16 L54 17 L58 12 L51 14 C42 4 28 15 32 24 C16 24 8 12 8 12 C8 12 2 21 12 28 L6 26 C6 32 10 36 17 38 L10 38 C14 46 21 46 21 46 C21 46 15 51 4 51 C37 67 57 37 54 21 Z" />
    </symbol>

    <symbol id="i-mail" viewBox="0 0 32 32">
        <path d="M2 26 L30 26 30 6 2 6 Z M2 6 L16 16 30 6" />
    </symbol>
</svg>
